<svg xmlns="http://www.w3.org/2000/svg" xmlns:xlink="http://www.w3.org/1999/xlink" fill="none" version="1.1" width="20" height="20" viewBox="0 0 20 20"><defs><clipPath id="master_svg0_726_01656"><rect x="0" y="0" width="20" height="20" rx="0"/></clipPath></defs><g clip-path="url(#master_svg0_726_01656)"><g><path d="M0.013356,10.8278C0.0205153,10.8278,0.0264013,10.8335,0.0267004,10.8406L0.0346791,11.0314C0.0395773,11.1486,0.138433,11.2396,0.255584,11.2349L1.22244,11.1957C1.49861,11.1845,1.71332,10.9514,1.70177,10.6753L1.68774,10.3396C1.68761,10.3365,1.68747,10.3338,1.68729,10.3308C1.68067,10.2175,1.68067,10.1021,1.68067,9.98739C1.68067,6.6927,3.62779,3.70941,6.64361,2.38336C9.64893,1.06197,13.1494,1.63533,15.5759,3.84361C15.5765,3.84413,15.5768,3.84447,15.5774,3.84498L15.6003,3.86607C15.6009,3.8666,15.6013,3.86696,15.6019,3.86749C15.6865,3.94445,15.7702,4.02521,15.8517,4.10672C15.8519,4.10687,15.8519,4.10684,15.852,4.10699L16.0933,4.34771C16.2887,4.54257,16.6049,4.54237,16.8,4.34726L17.4829,3.66429C17.5664,3.58083,17.5663,3.44549,17.4827,3.36213L17.3475,3.22722C17.342,3.22177,17.3418,3.21299,17.347,3.2073C17.3524,3.20144,17.352,3.19234,17.3462,3.18697L16.738,2.62826C16.6871,2.58159,16.6359,2.53552,16.5842,2.49005C16.5815,2.48768,16.5791,2.4855,16.5765,2.48306L16.1319,2.07468C16.1249,2.06822,16.1139,2.06868,16.1075,2.0757C16.1014,2.08231,16.0917,2.0835,16.0846,2.07801C13.2109,-0.139509,9.33121,-0.634827,5.96734,0.844153C2.60455,2.32266,0.346859,5.51498,0.0366455,9.13042C0.0358297,9.13993,0.0279024,9.14697,0.0183594,9.14697C0.00821979,9.14697,0,9.15519,0,9.16533L0,10.8145C0,10.8218,0.00597969,10.8278,0.013356,10.8278M17.9482,7.61422L18.0451,7.93954C18.124,8.20425,18.4025,8.35489,18.6672,8.27595L19.3178,8.08193C19.5823,8.00303,19.7329,7.72463,19.6541,7.46004L19.557,7.13409C19.5569,7.13389,19.5569,7.13393,19.5569,7.13373C19.479,6.87103,19.3881,6.60832,19.2889,6.35248C19.2887,6.35213,19.2887,6.35202,19.2885,6.35167L19.1651,6.03552C19.0646,5.77832,18.7747,5.65124,18.5175,5.75167L17.8843,5.99892C17.6268,6.09946,17.4997,6.38987,17.6007,6.64721L17.7247,6.96343C17.7249,6.96393,17.725,6.9642,17.7252,6.9647C17.8075,7.17681,17.8823,7.39501,17.9479,7.61322C17.948,7.61363,17.9481,7.61381,17.9482,7.61422M8.71143,13.0683C8.55666,13.1564,8.36669,13.1555,8.21272,13.066C8.05874,12.9765,7.964,12.8119,7.964,12.6338L7.964,7.39816C7.964,7.22006,8.05874,7.0554,8.21272,6.96589C8.36669,6.87639,8.55666,6.87554,8.71143,6.96368L13.3083,9.58148C13.4645,9.6704,13.5609,9.83627,13.5609,10.016C13.5609,10.1957,13.4645,10.3615,13.3083,10.4505L8.71143,13.0683ZM18.435,12.6146L19.1033,12.7539C19.373,12.8101,19.6374,12.6375,19.6945,12.3679L19.7652,12.034C19.7654,12.0332,19.7655,12.0326,19.7657,12.0317C19.8236,11.7646,19.8663,11.4907,19.8999,11.2183L19.9417,10.8804C19.9756,10.6063,19.7807,10.3566,19.5066,10.3228L18.8293,10.2394C18.5558,10.2057,18.3066,10.3996,18.2721,10.673L18.2292,11.0123C18.2292,11.0126,18.2292,11.0127,18.2291,11.013C18.2009,11.2398,18.1635,11.4673,18.1169,11.6896C18.1168,11.6898,18.1168,11.6898,18.1168,11.6901L18.0475,12.0233C17.9913,12.2935,18.1647,12.5582,18.435,12.6146M1.40945,15.1057L1.58394,15.3978C1.72554,15.6348,2.03246,15.7122,2.26952,15.5706L2.8532,15.2221C3.09124,15.08,3.16818,14.7713,3.0247,14.5341L2.8494,14.2442C2.84894,14.2435,2.84862,14.2429,2.84817,14.2422C2.73166,14.0472,2.62199,13.8445,2.52143,13.6404C2.52106,13.6397,2.5208,13.6391,2.52044,13.6384L2.37364,13.3365C2.25261,13.0876,1.95242,12.9844,1.70391,13.1062L1.09434,13.405C0.846436,13.5265,0.743941,13.8259,0.865387,14.0739L1.01526,14.3798C1.13596,14.6259,1.26888,14.8704,1.40945,15.1057ZM16.1654,16.3173L16.685,16.7571C16.8957,16.9354,17.2111,16.9093,17.3895,16.6987L17.6096,16.4389C17.7868,16.2296,17.9572,16.0103,18.1161,15.788L18.3141,15.511C18.4748,15.2863,18.4228,14.974,18.1981,14.8134L17.6443,14.4176C17.4196,14.2571,17.1074,14.309,16.9468,14.5336L16.7489,14.8103C16.7487,14.8106,16.7487,14.8107,16.7485,14.811C16.6164,14.9966,16.4743,15.1783,16.3269,15.3525L16.1068,15.6126C15.9284,15.8234,15.9546,16.1389,16.1654,16.3173M4.87806,18.5707L5.16928,18.7448C5.40649,18.8865,5.7137,18.8089,5.85521,18.5716L6.20374,17.987C6.34519,17.7498,6.26749,17.4428,6.03021,17.3014L5.73974,17.1284C5.73854,17.1277,5.73758,17.1271,5.73639,17.1264C5.54437,17.0097,5.34784,16.8832,5.16346,16.7514L4.88662,16.5534C4.66194,16.3927,4.34951,16.4447,4.18893,16.6694L3.79394,17.2223C3.63317,17.4473,3.68561,17.7602,3.91099,17.9204L4.18837,18.1177C4.18959,18.1186,4.1906,18.1193,4.19182,18.1202C4.41056,18.2787,4.6422,18.4303,4.87764,18.5705C4.87785,18.5706,4.87785,18.5706,4.87806,18.5707M12.4102,18.4983L12.6577,19.1324C12.7582,19.3897,13.0481,19.5168,13.3053,19.4164L13.6198,19.2937C13.6217,19.2929,13.6233,19.2923,13.6251,19.2915C13.8794,19.1887,14.133,19.0805,14.3789,18.9602L14.6845,18.8105C14.9326,18.6889,15.0351,18.3893,14.9135,18.1413L14.6136,17.5297C14.492,17.2817,14.1924,17.1793,13.9445,17.3009L13.6394,17.4505C13.4339,17.5513,13.2223,17.6445,13.0107,17.7271L12.694,17.8508C12.4368,17.9512,12.3098,18.2411,12.4102,18.4983M9.57905,19.9664L9.92069,19.9801C10.1963,19.9911,10.4287,19.7769,10.4402,19.5014L10.4687,18.8209C10.4803,18.5444,10.2651,18.3112,9.98868,18.3004L9.64933,18.2871C9.42015,18.2779,9.19096,18.2596,8.96178,18.2313L8.62382,18.1898C8.34974,18.1562,8.10028,18.3511,8.06664,18.6252L7.98369,19.301C7.95006,19.5749,8.14472,19.8243,8.41861,19.8581L8.75704,19.9C9.02901,19.9336,9.30555,19.9557,9.57905,19.9664Z" fill-rule="evenodd" fill="#C4C4C4" fill-opacity="1"/></g></g></svg>