<svg xmlns="http://www.w3.org/2000/svg" xmlns:xlink="http://www.w3.org/1999/xlink" fill="none" version="1.1" width="20" height="19.166667938232422" viewBox="0 0 20 19.166667938232422"><defs><clipPath id="master_svg0_726_01669"><rect x="0" y="0" width="20" height="19.166667938232422" rx="0"/></clipPath><linearGradient x1="1" y1="0.601513683795929" x2="0" y2="0.601513683795929" id="master_svg1_10_46709"><stop offset="0%" stop-color="#EA6A00" stop-opacity="1"/><stop offset="100%" stop-color="#F09235" stop-opacity="1"/></linearGradient><linearGradient x1="1" y1="0.601513683795929" x2="0" y2="0.601513683795929" id="master_svg2_10_46709"><stop offset="0%" stop-color="#EA6A00" stop-opacity="1"/><stop offset="100%" stop-color="#F09235" stop-opacity="1"/></linearGradient></defs><g clip-path="url(#master_svg0_726_01669)"><g><path d="M1,9.48035L1,6.83781C1,6.03369,1.64561,5.56349,2.75325,5.56273C3.65463,5.56273,4.5549800000000005,5.55819,5.45636,5.56273C5.87039,5.56853,6.2748,5.47081,6.6032,5.2856Q10.29122,3.27152,13.9854,1.254411C14.9353,0.736503,16.2255,1.0431589,16.5111,1.86015C16.5501,1.995234,16.5664,2.13331,16.5596,2.2713Q16.5596,4.255850000000001,16.5596,6.2404C16.545299999999997,6.35894,16.6295,6.47216,16.7731,6.52737C19.7423,7.91527,19.7423,11.0787,16.7731,12.4598C16.6292,12.5135,16.543599999999998,12.6256,16.5565,12.7438Q16.5668,14.7669,16.5565,16.7878C16.5565,17.5019,15.8573,18.016,14.9342,17.9993C14.5982,17.9883,14.2754,17.9001,14.0112,17.7472Q10.3696,15.7573,6.73005,13.7675C6.32532,13.532,5.82096,13.4083,5.30476,13.4177C4.44772,13.4328,3.58966,13.423,2.72644,13.4214C1.6517979999999999,13.4177,1,12.9391,1,12.1479L1,9.48035Z" fill="url(#master_svg1_10_46709)" fill-opacity="1"/></g><g><path d="M0.023899171875,9.57305C0.023899171875,8.81001,-0.010908958125,8.04511,0.031227171875,7.28488C0.116346171875,6.01739,1.117156171875,5.01622,2.358786171875,4.95646C3.484556171875,4.91714,4.613076171875,4.94522,5.740676171875,4.93212C5.890846171875,4.93026,6.038546171875,4.89276,6.172106171875,4.82258Q10.450726171875,2.52224,14.723926171875,0.208795C15.663726171875,-0.298646,16.708926171875,0.15543,16.928726171875,1.17499C16.955026171875,1.3295,16.965426171875,1.48639,16.959826171875,1.64311C16.959826171875,2.7872,16.959826171875,3.93221,16.959826171875,5.07723C16.959826171875,5.24295,17.002926171875,5.31691,17.165926171875,5.36747C18.846326171875,5.8666,20.003026171875,7.43902,20.005626171875,9.22758C20.015626171875,11.0177,18.881626171875,12.5765,17.165926171875,13.1102C17.002026171875,13.1607,16.958926171875,13.2356,16.959826171875,13.4013C16.966326171875,14.7954,16.934226171875,16.1904,16.972726171875,17.5826C17.005626171875,18.7875,15.797426171875,19.5646,14.701926171875,18.9607C11.895326171875,17.414,9.068506171875,15.9039,6.251796171875,14.3909C6.064256171875,14.295,5.857866171875,14.2438,5.648156171875,14.2411C4.640556171875,14.2252,3.637526171875,14.2411,2.631756171875,14.2327C1.099286171875,14.2215,0.022983171875,13.1298,0.00008307187500000007,11.5588C-0.007244948125,10.8969,0.00008307187500000007,10.235,0.00008307187500000007,9.57305L0.023899171875,9.57305ZM15.285426171875,17.3307L15.285426171875,1.84721C15.203026171875,1.88841,15.141626171875,1.91649,15.083026171875,1.94833Q11.152426171875,4.07078,7.218186171875,6.18855C7.084956171875,6.24252,7.003546171875,6.38095,7.019416171875,6.52653Q7.029486171875,9.58709,7.019416171875,12.6458C7.004136171875,12.7918,7.086276171875,12.9302,7.220016171875,12.9838Q10.681626171875,14.8431,14.136726171875,16.7147C14.511426171875,16.9169,14.886926171875,17.1173,15.285426171875,17.3307ZM5.333966171875,6.64075C4.402396171875,6.64075,3.501966171875,6.64075,2.591456171875,6.64075C2.036356171875,6.64075,1.680036171875,7.00776,1.675456171875,7.57699Q1.675456171875,9.58522,1.675456171875,11.5935C1.675456171875,12.1608,2.033606171875,12.5297,2.591456171875,12.5297Q3.873856171875,12.5297,5.150766171875,12.5297C5.209386171875,12.5297,5.267096171875,12.5194,5.333966171875,12.5138L5.333966171875,6.64075ZM16.976326171875,7.12011L16.976326171875,11.3453C17.722026171875,11.0832,18.311926171875,10.1872,18.323826171875,9.31933C18.336626171875,8.33253,17.793426171875,7.43281,16.976326171875,7.12011Z" fill="url(#master_svg2_10_46709)" fill-opacity="1"/></g></g></svg>