<svg xmlns="http://www.w3.org/2000/svg" xmlns:xlink="http://www.w3.org/1999/xlink" fill="none" version="1.1" width="20" height="20" viewBox="0 0 20 20"><defs><clipPath id="master_svg0_694_8695"><rect x="0" y="0" width="20" height="20" rx="0"/></clipPath><linearGradient x1="1" y1="0.601513683795929" x2="0" y2="0.601513683795929" id="master_svg1_10_45854"><stop offset="0%" stop-color="#EA6A00" stop-opacity="1"/><stop offset="100%" stop-color="#F09235" stop-opacity="1"/></linearGradient></defs><g clip-path="url(#master_svg0_694_8695)"><g><path d="M0,12.4757C0,11.0048,0.0078751,9.53386,0,8.06296C-0.0078751,6.49985,0.639008,5.31458,1.96877,4.47905C4.00505,3.19932,6.01882,1.8926,8.05735,0.608377C9.33761,-0.19567,10.6393,-0.206916,11.9251,0.598256C13.994,1.89823,16.0506,3.21506,18.1127,4.5274C19.3682,5.32583,19.9915,6.47961,19.9949,7.95838Q20.005,12.6522,19.9949,17.3472C19.9949,18.6606,19.2209,19.6412,17.9968,19.9134C17.8407,19.946,17.6816,19.9618,17.5221,19.9606C16.6795,19.9606,15.8346,19.9786,14.9919,19.9606C13.5362,19.9303,12.509,18.8608,12.4944,17.3742C12.4843,16.3531,12.4944,15.332,12.4944,14.3109C12.4944,13.6216,12.1918,13.3236,11.4954,13.3224Q10.0047,13.3224,8.51523,13.3224C7.81547,13.3224,7.51847,13.6171,7.51509,14.3087C7.50834,15.4231,7.55109,16.5409,7.48359,17.6519C7.40372,18.971,6.45195,19.8931,5.13681,19.964C4.22881,20.0118,3.31891,20.0118,2.41091,19.964C0.972012,19.8898,0.0123752,18.8316,0,17.3663C0,15.7357,0,14.1062,0,12.4757Z" fill="url(#master_svg1_10_45854)" fill-opacity="1"/></g></g></svg>