<svg xmlns="http://www.w3.org/2000/svg" xmlns:xlink="http://www.w3.org/1999/xlink" fill="none" version="1.1" width="20" height="20" viewBox="0 0 20 20"><defs><clipPath id="master_svg0_726_01648"><rect x="0" y="0" width="20" height="20" rx="0"/></clipPath></defs><g clip-path="url(#master_svg0_726_01648)"><g><path d="M0,12.6312C0,11.113,0.00563063,9.59369,0,8.07551C0,6.51451,0.640766,5.32432,1.96734,4.48802C4.00225,3.20541,6.0214,1.89575,8.05405,0.61313C9.33221,-0.193858,10.634,-0.209637,11.9144,0.597351Q15.0394,2.56523,18.1441,4.56467C19.3649,5.35362,19.9842,6.4807,19.9899,7.93125Q20.0101,12.656,19.9899,17.3818C19.9842,18.9146,18.9122,19.9639,17.3773,19.9741C16.5529,19.9741,15.7263,20.0169,14.8998,19.9741C13.4595,19.8929,12.4921,18.8391,12.4797,17.3919C12.4707,16.3607,12.4797,15.3294,12.4797,14.2981C12.4797,13.641,12.1712,13.3311,11.5203,13.33Q10.0023,13.33,8.47973,13.33C7.80405,13.33,7.50788,13.6331,7.50563,14.3116C7.50563,15.3339,7.50563,16.3562,7.50563,17.3773C7.49775,18.6565,6.74212,19.6382,5.55068,19.9301C5.4514,19.9568,5.34937,19.972,5.24662,19.9752C4.28153,19.982,3.31306,20.0383,2.35248,19.9752C0.939189,19.8771,0.00900901,18.8053,0,17.357C0,15.7791,0,14.2012,0,12.6312ZM1.67568,12.5996Q1.67568,14.9901,1.67568,17.3795C1.67568,17.9915,2.00225,18.3218,2.60698,18.3229Q3.7455,18.3229,4.88401,18.3229C5.51014,18.3229,5.83559,17.9983,5.83559,17.3728C5.83559,16.3325,5.83559,15.2922,5.83559,14.2508C5.83559,12.7597,6.90315,11.6799,8.39527,11.6686Q9.99887,11.6562,11.6002,11.6686C13.0901,11.6799,14.1554,12.7608,14.1577,14.253C14.1577,15.2933,14.1577,16.3336,14.1577,17.375C14.1577,17.9837,14.4865,18.3173,15.089,18.3184Q16.2275,18.3184,17.366,18.3184C17.9921,18.3184,18.3176,17.9893,18.3176,17.3649Q18.3176,12.6413,18.3176,7.91659Q18.3176,7.09833,17.2917,6.00056L10.9955,1.98817C10.33,1.56551,9.65428,1.5734,8.98874,1.99718Q5.87275,3.97633,2.75788,5.95886C2.06388,6.36863,1.64916,7.12527,1.6768,7.93125L1.67568,12.5996Z" fill="#C4C4C4" fill-opacity="1"/></g><g></g></g></svg>